<mxfile modified="2021-07-23T18:32:46.514Z" host="app.diagrams.net" agent="5.0 (Windows NT 6.3; Win64; x64) AppleWebKit/537.36 (KHTML, like Gecko) Chrome/91.0.4472.124 Safari/537.36" etag="3Atbq5paFMvEYAGbUort" version="14.9.1" type="github">
  <diagram id="Ht1M8jgEwFfnCIfOTk4-" name="Page-1">
    <mxGraphModel dx="1021" dy="529" grid="1" gridSize="10" guides="1" tooltips="1" connect="1" arrows="1" fold="1" page="1" pageScale="1" pageWidth="1169" pageHeight="827" math="0" shadow="0">
      <root>
        <mxCell id="0" />
        <mxCell id="1" parent="0" />
        <mxCell id="bTMXntHbuXdUkVzYNGNJ-6" value="" style="rounded=0;whiteSpace=wrap;html=1;fillColor=none;strokeColor=#d3d3d3;strokeWidth=2;" vertex="1" parent="1">
          <mxGeometry x="380" y="180.5" width="220" height="310" as="geometry" />
        </mxCell>
        <mxCell id="-QjtrjUzRDEMRZ5MF8oH-47" value="Diagrama de componentes proyecto de grado" style="text;html=1;resizable=0;points=[];autosize=1;align=left;verticalAlign=top;spacingTop=-4;fontSize=30;fontStyle=1" parent="1" vertex="1">
          <mxGeometry x="56.5" y="64.5" width="670" height="40" as="geometry" />
        </mxCell>
        <mxCell id="SCVMTBWpLvtzJIhz15lM-1" value="" style="line;strokeWidth=2;html=1;fontSize=14;" parent="1" vertex="1">
          <mxGeometry x="10" y="110" width="1060" height="10" as="geometry" />
        </mxCell>
        <mxCell id="bTMXntHbuXdUkVzYNGNJ-1" value="" style="pointerEvents=1;shadow=0;dashed=0;html=1;strokeColor=none;fillColor=#505050;labelPosition=center;verticalLabelPosition=bottom;verticalAlign=top;outlineConnect=0;align=center;shape=mxgraph.office.devices.cell_phone_android_standalone;" vertex="1" parent="1">
          <mxGeometry x="133" y="230" width="57" height="90" as="geometry" />
        </mxCell>
        <mxCell id="bTMXntHbuXdUkVzYNGNJ-2" value="" style="verticalLabelPosition=bottom;html=1;verticalAlign=top;align=center;strokeColor=none;fillColor=#00BEF2;shape=mxgraph.azure.computer;pointerEvents=1;" vertex="1" parent="1">
          <mxGeometry x="130" y="369" width="60" height="61" as="geometry" />
        </mxCell>
        <mxCell id="bTMXntHbuXdUkVzYNGNJ-23" value="" style="edgeStyle=orthogonalEdgeStyle;rounded=0;orthogonalLoop=1;jettySize=auto;html=1;" edge="1" parent="1" source="bTMXntHbuXdUkVzYNGNJ-3" target="bTMXntHbuXdUkVzYNGNJ-6">
          <mxGeometry relative="1" as="geometry" />
        </mxCell>
        <mxCell id="bTMXntHbuXdUkVzYNGNJ-3" value="" style="rounded=0;whiteSpace=wrap;html=1;fillColor=none;strokeColor=#d3d3d3;strokeWidth=2;" vertex="1" parent="1">
          <mxGeometry x="80" y="180.5" width="220" height="310" as="geometry" />
        </mxCell>
        <mxCell id="bTMXntHbuXdUkVzYNGNJ-4" value="" style="dashed=0;outlineConnect=0;html=1;align=center;labelPosition=center;verticalLabelPosition=bottom;verticalAlign=top;shape=mxgraph.weblogos.java" vertex="1" parent="1">
          <mxGeometry x="540" y="349" width="34.4" height="65" as="geometry" />
        </mxCell>
        <mxCell id="bTMXntHbuXdUkVzYNGNJ-5" value="" style="html=1;dashed=0;whitespace=wrap;fillColor=#2875E2;strokeColor=#ffffff;points=[[0.005,0.63,0],[0.1,0.2,0],[0.9,0.2,0],[0.5,0,0],[0.995,0.63,0],[0.72,0.99,0],[0.5,1,0],[0.28,0.99,0]];shape=mxgraph.kubernetes.icon;prIcon=api" vertex="1" parent="1">
          <mxGeometry x="435" y="287.5" width="110" height="96" as="geometry" />
        </mxCell>
        <mxCell id="bTMXntHbuXdUkVzYNGNJ-7" value="BACK-END" style="text;html=1;strokeColor=none;fillColor=none;align=center;verticalAlign=middle;whiteSpace=wrap;rounded=0;fontStyle=1" vertex="1" parent="1">
          <mxGeometry x="452" y="190" width="78" height="20" as="geometry" />
        </mxCell>
        <mxCell id="bTMXntHbuXdUkVzYNGNJ-8" value="FRONT-END" style="text;html=1;strokeColor=none;fillColor=none;align=center;verticalAlign=middle;whiteSpace=wrap;rounded=0;fontStyle=1" vertex="1" parent="1">
          <mxGeometry x="151" y="190" width="78" height="20" as="geometry" />
        </mxCell>
        <mxCell id="bTMXntHbuXdUkVzYNGNJ-10" value="" style="rounded=0;whiteSpace=wrap;html=1;fillColor=none;strokeColor=#d3d3d3;strokeWidth=2;" vertex="1" parent="1">
          <mxGeometry x="690" y="180.5" width="340" height="310" as="geometry" />
        </mxCell>
        <mxCell id="bTMXntHbuXdUkVzYNGNJ-13" value="AMAZON REKOGNITION API" style="text;html=1;strokeColor=none;fillColor=none;align=center;verticalAlign=middle;whiteSpace=wrap;rounded=0;fontStyle=1" vertex="1" parent="1">
          <mxGeometry x="720" y="190" width="260" height="20" as="geometry" />
        </mxCell>
        <mxCell id="bTMXntHbuXdUkVzYNGNJ-14" value="" style="outlineConnect=0;dashed=0;verticalLabelPosition=bottom;verticalAlign=top;align=center;html=1;shape=mxgraph.aws3.api_gateway;fillColor=#D9A741;gradientColor=none;" vertex="1" parent="1">
          <mxGeometry x="720" y="276" width="76.5" height="93" as="geometry" />
        </mxCell>
        <mxCell id="bTMXntHbuXdUkVzYNGNJ-15" value="" style="points=[[0,0,0],[0.25,0,0],[0.5,0,0],[0.75,0,0],[1,0,0],[0,1,0],[0.25,1,0],[0.5,1,0],[0.75,1,0],[1,1,0],[0,0.25,0],[0,0.5,0],[0,0.75,0],[1,0.25,0],[1,0.5,0],[1,0.75,0]];outlineConnect=0;fontColor=#232F3E;gradientColor=#F78E04;gradientDirection=north;fillColor=#D05C17;strokeColor=#ffffff;dashed=0;verticalLabelPosition=bottom;verticalAlign=top;align=center;html=1;fontSize=12;fontStyle=0;aspect=fixed;shape=mxgraph.aws4.resourceIcon;resIcon=mxgraph.aws4.lambda;" vertex="1" parent="1">
          <mxGeometry x="880" y="280" width="78" height="78" as="geometry" />
        </mxCell>
        <mxCell id="bTMXntHbuXdUkVzYNGNJ-17" value="" style="shape=image;html=1;verticalAlign=top;verticalLabelPosition=bottom;labelBackgroundColor=#ffffff;imageAspect=0;aspect=fixed;image=https://cdn3.iconfinder.com/data/icons/logos-and-brands-adobe/512/267_Python-128.png" vertex="1" parent="1">
          <mxGeometry x="960" y="336.5" width="61" height="61" as="geometry" />
        </mxCell>
        <mxCell id="bTMXntHbuXdUkVzYNGNJ-18" value="" style="endArrow=classic;startArrow=classic;html=1;entryX=0;entryY=0.5;entryDx=0;entryDy=0;" edge="1" parent="1" target="bTMXntHbuXdUkVzYNGNJ-6">
          <mxGeometry width="50" height="50" relative="1" as="geometry">
            <mxPoint x="300" y="335" as="sourcePoint" />
            <mxPoint x="340" y="370" as="targetPoint" />
          </mxGeometry>
        </mxCell>
        <mxCell id="bTMXntHbuXdUkVzYNGNJ-19" value="" style="endArrow=classic;startArrow=classic;html=1;entryX=0;entryY=0.5;entryDx=0;entryDy=0;exitX=1;exitY=0.5;exitDx=0;exitDy=0;" edge="1" parent="1" source="bTMXntHbuXdUkVzYNGNJ-6" target="bTMXntHbuXdUkVzYNGNJ-10">
          <mxGeometry width="50" height="50" relative="1" as="geometry">
            <mxPoint x="584" y="335" as="sourcePoint" />
            <mxPoint x="668" y="336.9999999999999" as="targetPoint" />
          </mxGeometry>
        </mxCell>
        <mxCell id="bTMXntHbuXdUkVzYNGNJ-20" value="" style="endArrow=classic;startArrow=classic;html=1;" edge="1" parent="1">
          <mxGeometry width="50" height="50" relative="1" as="geometry">
            <mxPoint x="802" y="320" as="sourcePoint" />
            <mxPoint x="872" y="320" as="targetPoint" />
          </mxGeometry>
        </mxCell>
        <mxCell id="bTMXntHbuXdUkVzYNGNJ-21" value="" style="shape=image;html=1;verticalAlign=top;verticalLabelPosition=bottom;labelBackgroundColor=#ffffff;imageAspect=0;aspect=fixed;image=https://cdn4.iconfinder.com/data/icons/logos-3/512/Ionic_Logo-2-128.png" vertex="1" parent="1">
          <mxGeometry x="205.5" y="383.5" width="81.5" height="81.5" as="geometry" />
        </mxCell>
        <mxCell id="bTMXntHbuXdUkVzYNGNJ-22" value="" style="shape=image;html=1;verticalAlign=top;verticalLabelPosition=bottom;labelBackgroundColor=#ffffff;imageAspect=0;aspect=fixed;image=https://cdn3.iconfinder.com/data/icons/popular-services-brands/512/angular-js-128.png" vertex="1" parent="1">
          <mxGeometry x="240.5" y="440.5" width="34.5" height="34.5" as="geometry" />
        </mxCell>
      </root>
    </mxGraphModel>
  </diagram>
</mxfile>
